<svg xmlns="http://www.w3.org/2000/svg" width="1200" height="675" viewBox="0 0 1200 675">
  <defs>
    <linearGradient id="bg" x1="0" y1="0" x2="1" y2="1">
      <stop offset="0" stop-color="#ffffff"/>
      <stop offset="1" stop-color="#f5f7fa"/>
    </linearGradient>
    <filter id="shadow" x="-20%" y="-20%" width="140%" height="140%">
      <feDropShadow dx="0" dy="14" stdDeviation="18" flood-color="#000" flood-opacity="0.10"/>
    </filter>
  </defs>
  <rect x="0" y="0" width="1200" height="675" rx="36" fill="url(#bg)"/>
  <rect x="56" y="56" width="1088" height="563" rx="28" fill="#fff" stroke="#e5e7eb" filter="url(#shadow)"/>
  <rect x="88" y="88" width="1024" height="76" rx="18" fill="#0f172a" opacity="0.04"/>
  <circle cx="122" cy="126" r="14" fill="#1f7a3e" opacity="0.25"/>
  <circle cx="122" cy="126" r="7" fill="#1f7a3e"/>
  <text x="150" y="132" font-family="Inter, system-ui, -apple-system, Segoe UI" font-size="22" fill="#0f172a" font-weight="600">Supplement Advisor</text>
  <rect x="936" y="108" width="150" height="36" rx="18" fill="#1f7a3e" opacity="0.12"/>
  <text x="1011" y="132" text-anchor="middle" font-family="Inter, system-ui" font-size="14" fill="#1f7a3e" font-weight="700">CHAT</text>
  <rect x="88" y="184" width="654" height="396" rx="22" fill="#0f172a" opacity="0.03"/>
  <rect x="118" y="220" width="420" height="64" rx="18" fill="#ffffff" stroke="#e5e7eb"/>
  <text x="140" y="258" font-family="Inter, system-ui" font-size="16" fill="#111">Client: fatigue + poor sleep.</text>
  <rect x="206" y="304" width="506" height="92" rx="18" fill="#1f7a3e" opacity="0.10" stroke="#e5e7eb"/>
  <text x="228" y="340" font-family="Inter, system-ui" font-size="16" fill="#0f172a">AI: Here are the likely patterns and next steps…</text>
  <text x="228" y="366" font-family="Inter, system-ui" font-size="14" fill="#334155">• Key questions • Contraindications • Protocol draft</text>
  <rect x="118" y="420" width="360" height="64" rx="18" fill="#ffffff" stroke="#e5e7eb"/>
  <text x="140" y="458" font-family="Inter, system-ui" font-size="16" fill="#111">Practitioner: generate plan.</text>
  <rect x="206" y="504" width="506" height="70" rx="18" fill="#1f7a3e" opacity="0.10" stroke="#e5e7eb"/>
  <text x="228" y="545" font-family="Inter, system-ui" font-size="14" fill="#0f172a">AI: Draft protocol + notes ready for your consult.</text>
  <rect x="770" y="184" width="342" height="396" rx="22" fill="#0f172a" opacity="0.03"/>
  <text x="802" y="230" font-family="Inter, system-ui" font-size="14" fill="#475569" font-weight="600">Highlights</text>
  <rect x="802" y="252" width="278" height="86" rx="18" fill="#fff" stroke="#e5e7eb"/>
  <text x="824" y="288" font-family="Inter, system-ui" font-size="14" fill="#111" font-weight="600">Top signals</text>
  <text x="824" y="312" font-family="Inter, system-ui" font-size="13" fill="#475569">Sleep quality • Stress load • Nutrition</text>
  <rect x="802" y="354" width="278" height="110" rx="18" fill="#fff" stroke="#e5e7eb"/>
  <text x="824" y="390" font-family="Inter, system-ui" font-size="14" fill="#111" font-weight="600">Suggested actions</text>
  <text x="824" y="414" font-family="Inter, system-ui" font-size="13" fill="#475569">1. Labs / functional tests</text>
  <text x="824" y="436" font-family="Inter, system-ui" font-size="13" fill="#475569">2. Lifestyle intervention</text>
  <text x="824" y="458" font-family="Inter, system-ui" font-size="13" fill="#475569">3. Follow-up cadence</text>
  <rect x="802" y="480" width="278" height="100" rx="18" fill="#fff" stroke="#e5e7eb"/>
  <text x="824" y="516" font-family="Inter, system-ui" font-size="14" fill="#111" font-weight="600">Confidence</text>
  <rect x="824" y="536" width="230" height="12" rx="6" fill="#e2e8f0"/>
  <rect x="824" y="536" width="168" height="12" rx="6" fill="#1f7a3e" opacity="0.55"/>
</svg>
